# xmcd
#
# Track frame offsets:
#	150
#	13240
#	25555
#	37220
#	50100
#	62112
#	74777
#	87967
#	100205
#	114745
#	125115
#	130667
#	141360
#	154430
#	167330
#	177920
#	189387
#	193817
#	207242
#	211212
#	223105
#	234987
#	246805
#	258985
#	273172
#	287790
#	300000
#	312327
#	322657
#	335890
#	346335
#
# Disc length: 4740 seconds
#
# Revision: 1
# Processed by: cddbd v1.5.2PL0 Copyright (c) Steve Scherf et al.
# Submitted via: EZCDAudioConverter 3.1.0.1
#
DISCID=db12821f
DTITLE=Lightnin' Hopkins - Jake Head Boogie
DYEAR=1900
DGENRE=Blues
TTITLE0=Jake Head Boogie
TTITLE1=Lonesome Dog Blues
TTITLE2=House upon the Hill
TTITLE3=Santa Fe Blues
TTITLE4=Ticket Agent
TTITLE5=War News Blues
TTITLE6=Another Fool in Town
TTITLE7=Candy Kitchen
TTITLE8=Tell Me Pretty Mama
TTITLE9=Give Me Back That Wig (Wig Wearing Woman)
TTITLE10=Every Day I Have the Blues
TTITLE11=Every Day I Have the Blues
TTITLE12=Needed Time
TTITLE13=One Kind Favor
TTITLE14=Driftin' Blues
TTITLE15=Someday Baby
TTITLE16=Last Affair
TTITLE17=Last Affair
TTITLE18=Bad Luck and Trouble
TTITLE19=Bad Luck and Trouble
TTITLE20=Beggin' You to Stay (Someday Baby)
TTITLE21=Black Cat Blues
TTITLE22=Mistreated Blues
TTITLE23=Jake Head Boogie
TTITLE24=Lonesome Dog Blues
TTITLE25=Ticket Agent
TTITLE26=Candy Kitchen
TTITLE27=Give Me Back That Wig (Wig Wearing Woman)
TTITLE28=Needed Time
TTITLE29=Don't Keep My Baby Long
TTITLE30=Mistreated Blues
EXTD=
EXTT0=
EXTT1=
EXTT2=
EXTT3=
EXTT4=
EXTT5=
EXTT6=
EXTT7=
EXTT8=
EXTT9=
EXTT10=
EXTT11=
EXTT12=
EXTT13=
EXTT14=
EXTT15=
EXTT16=
EXTT17=
EXTT18=
EXTT19=
EXTT20=
EXTT21=
EXTT22=
EXTT23=
EXTT24=
EXTT25=
EXTT26=
EXTT27=
EXTT28=
EXTT29=
EXTT30=
PLAYORDER=
